<?xml version="1.0" encoding="utf-8"?>
<!-- Generator: Adobe Illustrator 22.1.0, SVG Export Plug-In . SVG Version: 6.00 Build 0)  -->
<svg version="1.1" id="Layer_1" xmlns="http://www.w3.org/2000/svg" xmlns:xlink="http://www.w3.org/1999/xlink" x="0px" y="0px"
	 viewBox="0 0 52 65" style="enable-background:new 0 0 52 65;" xml:space="preserve">
<style type="text/css">
	.st0{fill:#FFFFFF;stroke:#FFFFFF;stroke-miterlimit:10;}
</style>
<g>
	<g>
		<path class="st0" d="M26,50C12.8,50,2,39.2,2,26S12.8,2,26,2s24,10.8,24,24S39.2,50,26,50z M26,4C13.9,4,4,13.9,4,26s9.9,22,22,22
			s22-9.9,22-22S38.1,4,26,4z"/>
	</g>
	<g>
		<path class="st0" d="M40,23h-9.6c-0.5,0-0.9-0.3-1.1-0.8s0-1,0.3-1.3l8.7-7.2l1.3,1.5L32.8,21H40V23z"/>
	</g>
	<g>
		<path class="st0" d="M20.2,23h-9.6v-2h7.2l-6.9-5.7l1.3-1.5l8.7,7.2c0.4,0.3,0.5,0.8,0.3,1.3C21.1,22.7,20.7,23,20.2,23z"/>
	</g>
	<g>
		<path class="st0" d="M37.3,40.8H14.7v-1c0-5.8,5.1-10.5,11.3-10.5S37.3,34,37.3,39.8V40.8z M16.7,38.8h18.6
			c-0.5-4.2-4.5-7.5-9.3-7.5S17.3,34.5,16.7,38.8z"/>
	</g>
</g>
</svg>
