<svg xmlns="http://www.w3.org/2000/svg" xmlns:xlink="http://www.w3.org/1999/xlink" version="1.1" x="0px" y="0px" viewBox="0 0 52 65" enable-background="new 0 0 52 52" xml:space="preserve"><g><g><path d="M26,50C12.7666016,50,2,39.2333984,2,26S12.7666016,2,26,2s24,10.7666016,24,24S39.2333984,50,26,50z M26,4    C13.8691406,4,4,13.8691406,4,26s9.8691406,22,22,22s22-9.8691406,22-22S38.1308594,4,26,4z"/></g><g><path d="M40,23h-9.5878906c-0.4814453,0-0.9150391-0.3037109-1.0791016-0.7568359s-0.0263672-0.9648438,0.34375-1.2734375    l8.6865234-7.1738281l1.2734375,1.5429688L32.7802734,21H40V23z"/></g><g><path d="M20.1689453,23h-9.5878906v-2h7.2197266l-6.8564453-5.6611328l1.2734375-1.5429688l8.6826172,7.1699219    c0.3730469,0.3085938,0.5126953,0.8203125,0.3496094,1.2744141C21.0859375,22.6953125,20.6523438,23,20.1689453,23z"/></g><g><path d="M37.3447266,40.75H14.6542969v-1c0-5.7900391,5.0888672-10.5,11.3447266-10.5s11.3457031,4.7099609,11.3457031,10.5V40.75    z M16.71875,38.75h18.5615234c-0.5458984-4.2177734-4.5-7.5-9.28125-7.5S17.2646484,34.5322266,16.71875,38.75z"/></g></g><text x="0" y="67" fill="#ffffff" font-size="5px" font-weight="bold" font-family="'Helvetica Neue', Helvetica, Arial-Unicode, Arial, Sans-serif">Created by Dinosoft Labs</text><text x="0" y="72" fill="#000000" font-size="5px" font-weight="bold" font-family="'Helvetica Neue', Helvetica, Arial-Unicode, Arial, Sans-serif">from the Noun Project</text></svg>