<?xml version="1.0" encoding="utf-8"?>
<!-- Generator: Adobe Illustrator 22.1.0, SVG Export Plug-In . SVG Version: 6.00 Build 0)  -->
<svg version="1.1" id="Layer_1" xmlns="http://www.w3.org/2000/svg" xmlns:xlink="http://www.w3.org/1999/xlink" x="0px" y="0px"
	 viewBox="0 0 52 65" style="enable-background:new 0 0 52 65;" xml:space="preserve">
<style type="text/css">
	.st0{fill:#FFFFFF;stroke:#FFFFFF;stroke-miterlimit:10;}
</style>
<g>
	<path class="st0" d="M26,50C12.8,50,2,39.2,2,26S12.8,2,26,2s24,10.8,24,24S39.2,50,26,50z M26,4C13.9,4,4,13.9,4,26s9.9,22,22,22
		s22-9.9,22-22S38.1,4,26,4z"/>
</g>
<rect x="19.2" y="32.4" transform="matrix(0.9568 0.2906 -0.2906 0.9568 10.8261 -6.0501)" class="st0" width="13.3" height="2"/>
<rect x="29" y="16.5" class="st0" width="9.3" height="2"/>
<rect x="13" y="16.5" class="st0" width="9.3" height="2"/>
</svg>
