<?xml version="1.0" encoding="utf-8"?>
<!-- Generator: Adobe Illustrator 22.1.0, SVG Export Plug-In . SVG Version: 6.00 Build 0)  -->
<svg version="1.1" id="Layer_1" xmlns="http://www.w3.org/2000/svg" xmlns:xlink="http://www.w3.org/1999/xlink" x="0px" y="0px"
	 viewBox="0 0 52 65" style="enable-background:new 0 0 52 65;" xml:space="preserve">
<style type="text/css">
	.st0{fill:#FFFFFF;stroke:#FFFFFF;stroke-miterlimit:10;}
</style>
<g>
	<g>
		<path class="st0" d="M26,50C12.8,50,2,39.2,2,26S12.8,2,26,2s24,10.8,24,24S39.2,50,26,50z M26,4C13.9,4,4,13.9,4,26s9.9,22,22,22
			s22-9.9,22-22S38.1,4,26,4z"/>
	</g>
	<g>
		<path class="st0" d="M20.3,20.9c-5-3-8.5-0.2-8.7-0.1l-1.3-1.5c0.2-0.2,4.8-3.9,11-0.1L20.3,20.9z"/>
	</g>
	<g>
		<path class="st0" d="M37.4,20.9c-5-3-8.5-0.2-8.7-0.1l-1.3-1.5c0.2-0.2,4.8-3.9,11-0.1L37.4,20.9z"/>
	</g>
	<g>
		<path class="st0" d="M25.8,37.8c-4.4,0-7.2-1.8-7.4-2l1.1-1.7c0.2,0.2,5.7,3.6,13.1-0.1l0.9,1.8C30.6,37.3,28,37.8,25.8,37.8z"/>
	</g>
</g>
</svg>
