<?xml version="1.0" encoding="utf-8"?>
<!-- Generator: Adobe Illustrator 22.1.0, SVG Export Plug-In . SVG Version: 6.00 Build 0)  -->
<svg version="1.1" id="Layer_1" xmlns="http://www.w3.org/2000/svg" xmlns:xlink="http://www.w3.org/1999/xlink" x="0px" y="0px"
	 viewBox="0 0 52 65" style="enable-background:new 0 0 52 65;" xml:space="preserve">
<style type="text/css">
	.st0{fill:#FFFFFF;stroke:#FFFFFF;stroke-miterlimit:10;}
</style>
<g>
	<g>
		<path class="st0" d="M26,50C12.8,50,2,39.2,2,26S12.8,2,26,2s24,10.8,24,24S39.2,50,26,50z M26,4C13.9,4,4,13.9,4,26s9.9,22,22,22
			s22-9.9,22-22S38.1,4,26,4z"/>
	</g>
	<g>
		<path class="st0" d="M30.4,23l-1-1.7c0.3-0.2,7.7-4.3,12.2,0.2l-1.4,1.4C36.8,19.4,30.5,22.9,30.4,23z"/>
	</g>
	<g>
		<path class="st0" d="M10.4,23l-1-1.7c0.3-0.2,7.7-4.3,12.2,0.2l-1.4,1.4C16.8,19.4,10.5,22.9,10.4,23z"/>
	</g>
	<g>
		<path class="st0" d="M19.7,39.2c-1.1,0-2-0.2-2.8-0.7c-1-0.7-1.7-1.8-1.9-3.3l2-0.3c0.1,0.9,0.4,1.5,1,1.9c1.5,1,4.9-0.1,7.9-1
			c3.6-1.1,7.1-2.1,9.3-0.8c1,0.6,1.6,1.5,1.8,2.9l-2,0.4c-0.1-0.7-0.4-1.2-0.9-1.5c-1.4-0.9-4.7,0.1-7.7,1
			C24,38.5,21.7,39.2,19.7,39.2z"/>
	</g>
</g>
</svg>
