<?xml version="1.0" encoding="utf-8"?>
<!-- Generator: Adobe Illustrator 22.1.0, SVG Export Plug-In . SVG Version: 6.00 Build 0)  -->
<svg version="1.1" id="Layer_1" xmlns="http://www.w3.org/2000/svg" xmlns:xlink="http://www.w3.org/1999/xlink" x="0px" y="0px"
	 viewBox="0 0 32 40" style="enable-background:new 0 0 32 40;" xml:space="preserve">
<style type="text/css">
	.st0{fill:#FFFFFF;stroke:#FFFFFF;stroke-miterlimit:10;}
</style>
<title>227-Emotion</title>
<g>
	<path class="st0" d="M16,32C7.2,32,0,24.8,0,16S7.2,0,16,0s16,7.2,16,16S24.8,32,16,32z M16,2C8.3,2,2,8.3,2,16s6.3,14,14,14
		s14-6.3,14-14S23.7,2,16,2z"/>
	<path class="st0" d="M11,16c-2.2,0-4-1.8-4-4s1.8-4,4-4s4,1.8,4,4S13.2,16,11,16z M11,10c-1.1,0-2,0.9-2,2s0.9,2,2,2s2-0.9,2-2
		S12.1,10,11,10z"/>
	<path class="st0" d="M21,16c-2.2,0-4-1.8-4-4s1.8-4,4-4s4,1.8,4,4S23.2,16,21,16z M21,10c-1.1,0-2,0.9-2,2s0.9,2,2,2s2-0.9,2-2
		S22.1,10,21,10z"/>
	<path class="st0" d="M17.4,24L17.4,24c-0.3,0-0.6-0.2-0.8-0.4l-2-2.8l-2,2.8c-0.3,0.5-0.9,0.6-1.4,0.2c-0.1-0.1-0.2-0.2-0.2-0.2
		l-2.8-4l1.6-1.1l2,2.8l2-2.8c0.3-0.5,0.9-0.6,1.4-0.2c0.1,0.1,0.2,0.2,0.2,0.2l2,2.8l2-2.8c0.2-0.3,0.5-0.4,0.8-0.4l0,0
		c0.3,0,0.6,0.2,0.8,0.4l2.8,4l-1.6,1.1l-2-2.8l-2,2.8C18,23.8,17.7,24,17.4,24z"/>
</g>
</svg>
