<?xml version="1.0" encoding="utf-8"?>
<!-- Generator: Adobe Illustrator 22.1.0, SVG Export Plug-In . SVG Version: 6.00 Build 0)  -->
<svg version="1.1" id="Layer_1" xmlns="http://www.w3.org/2000/svg" xmlns:xlink="http://www.w3.org/1999/xlink" x="0px" y="0px"
	 viewBox="0 0 52 65" style="enable-background:new 0 0 52 65;" xml:space="preserve">
<style type="text/css">
	.st0{fill:#FFFFFF;stroke:#FFFFFF;stroke-miterlimit:10;}
</style>
<g>
	<g>
		<path class="st0" d="M26,50C12.8,50,2,39.2,2,26S12.8,2,26,2s24,10.8,24,24S39.2,50,26,50z M26,4C13.9,4,4,13.9,4,26s9.9,22,22,22
			s22-9.9,22-22S38.1,4,26,4z"/>
	</g>
	<g>
		<path class="st0" d="M15.1,25c-2.8,0-5-2.2-5-5s2.2-5,5-5s5,2.2,5,5S17.8,25,15.1,25z M15.1,17c-1.7,0-3,1.3-3,3s1.3,3,3,3
			s3-1.3,3-3S16.7,17,15.1,17z"/>
	</g>
	<g>
		<path class="st0" d="M37,25c-2.8,0-5-2.2-5-5s2.2-5,5-5s5,2.2,5,5S39.8,25,37,25z M37,17c-1.7,0-3,1.3-3,3s1.3,3,3,3s3-1.3,3-3
			S38.7,17,37,17z"/>
	</g>
	<g>
		<path class="st0" d="M26,44c-6.6,0-12.7-3.7-15.9-9.5l1.8-0.9C14.7,38.8,20.1,42,26,42c5.9,0,11.3-3.2,14.1-8.5l1.8,0.9
			C38.7,40.3,32.6,44,26,44z"/>
	</g>
</g>
</svg>
