<?xml version="1.0" encoding="utf-8"?>
<!-- Generator: Adobe Illustrator 22.1.0, SVG Export Plug-In . SVG Version: 6.00 Build 0)  -->
<svg version="1.1" id="Layer_1" xmlns="http://www.w3.org/2000/svg" xmlns:xlink="http://www.w3.org/1999/xlink" x="0px" y="0px"
	 viewBox="0 0 52 65" style="enable-background:new 0 0 52 65;" xml:space="preserve">
<style type="text/css">
	.st0{fill:#FFFFFF;stroke:#FFFFFF;stroke-miterlimit:10;}
</style>
<g>
	<g>
		<path class="st0" d="M26,50C12.8,50,2,39.2,2,26S12.8,2,26,2s24,10.8,24,24S39.2,50,26,50z M26,4C13.9,4,4,13.9,4,26s9.9,22,22,22
			s22-9.9,22-22S38.1,4,26,4z"/>
	</g>
	<g>
		<path class="st0" d="M17.9,21.2c-0.1,0-0.3,0-0.4,0c-3.2-0.2-5.2-2.5-5.3-2.5l1.5-1.3c0.4,0.4,3.9,4.1,8.6-0.1l1.3,1.5
			C21.8,20.4,19.9,21.2,17.9,21.2z"/>
	</g>
	<g>
		<path class="st0" d="M34.9,21.1c-1.1,0-2-0.3-2.8-0.6c-1.8-0.7-2.8-1.9-2.9-2l1.5-1.3L30,17.9l0.7-0.7c0,0,0.8,0.9,2.1,1.5
			c2.1,0.9,4.3,0.4,6.4-1.5l1.3,1.5C38.6,20.5,36.6,21.1,34.9,21.1z"/>
	</g>
	<g>
		<path class="st0" d="M26.4,38.3c-3,0-5.5-1.5-6.9-2.8l1.4-1.4c0.2,0.2,5.4,5,10.6,0l1.4,1.4C30.8,37.5,28.5,38.3,26.4,38.3z"/>
	</g>
</g>
</svg>
