<?xml version="1.0" encoding="utf-8"?>
<!-- Generator: Adobe Illustrator 22.1.0, SVG Export Plug-In . SVG Version: 6.00 Build 0)  -->
<svg version="1.1" id="Layer_1" xmlns="http://www.w3.org/2000/svg" xmlns:xlink="http://www.w3.org/1999/xlink" x="0px" y="0px"
	 viewBox="0 0 52 65" style="enable-background:new 0 0 52 65;" xml:space="preserve">
<style type="text/css">
	.st0{fill:#FFFFFF;stroke:#FFFFFF;stroke-miterlimit:10;}
</style>
<g>
	<g>
		<path class="st0" d="M26,50C12.8,50,2,39.2,2,26S12.8,2,26,2s24,10.8,24,24S39.2,50,26,50z M26,4C13.9,4,4,13.9,4,26s9.9,22,22,22
			s22-9.9,22-22S38.1,4,26,4z"/>
	</g>
	<g>
		<path class="st0" d="M17.3,26.2c-3,0-5.5-2.5-5.5-5.5s2.5-5.5,5.5-5.5s5.5,2.5,5.5,5.5S20.4,26.2,17.3,26.2z M17.3,17.2
			c-1.9,0-3.5,1.6-3.5,3.5s1.6,3.5,3.5,3.5s3.5-1.6,3.5-3.5S19.2,17.2,17.3,17.2z"/>
	</g>
	<g>
		<path class="st0" d="M35.1,26.5c-3,0-5.5-2.5-5.5-5.5s2.5-5.5,5.5-5.5s5.5,2.5,5.5,5.5S38.1,26.5,35.1,26.5z M35.1,17.5
			c-1.9,0-3.5,1.6-3.5,3.5s1.6,3.5,3.5,3.5s3.5-1.6,3.5-3.5S37,17.5,35.1,17.5z"/>
	</g>
	<g>
		<path class="st0" d="M35.4,37.1c-9.4-4.7-18-0.1-18.1,0l-1-1.7c0.4-0.2,9.6-5.2,19.9,0L35.4,37.1z"/>
	</g>
</g>
</svg>
